<svg xmlns="http://www.w3.org/2000/svg" viewBox="0 0 578.9 91.78"><defs><style>.cls-1{fill:#1167b1;}</style></defs><g id="Layer_2" data-name="Layer 2"><g id="Layer_1-2" data-name="Layer 1"><path class="cls-1" d="M93.54,44.89C93.46,63.58,83.41,79.05,68,86.8a46.84,46.84,0,0,1-14.19,4.46,45.78,45.78,0,0,1-9.28.46A46.35,46.35,0,0,1,15.8,80.23,44.87,44.87,0,0,1,.92,54.84,43,43,0,0,1,0,44.72a44.7,44.7,0,0,1,10.76-28.1A47.09,47.09,0,0,1,49.25.07,46.73,46.73,0,0,1,89.8,28,41.8,41.8,0,0,1,93,39.48c.27,2.14.4,4.3.5,5.41M13,72.6c.31,0,.47-.07.63-.11l15.19-3.76a1,1,0,0,0,.75-.62Q38,52.24,46.35,36.37c.08-.15.17-.3.3-.5l.31.58L63.38,68a1.17,1.17,0,0,0,.82.68l14.46,3.7,1.43.34.09-.11L46.54,7.89,13,72.6M44.36,43.32l-.14-.06c-.29.48-.61.94-.87,1.44L30.73,69c-.2.38,0,.49.27.65l15.58,8.91a.7.7,0,0,0,.84,0q7.34-4.48,14.69-8.92c.38-.23.43-.41.22-.8q-6.6-12.57-13.17-25.15c-.09-.17-.19-.34-.29-.51l-.11.06c.06.16.13.33.2.49Q54,55.54,59.14,67.3c.2.47.12.66-.3.92q-5.72,3.51-11.41,7.08a.86.86,0,0,1-1,0q-5.9-3.49-11.81-6.92c-.38-.23-.43-.41-.26-.8q4.56-11,9.1-22c.31-.77.63-1.54,1-2.31m-11.73-15c-1.62,4.21-3.2,8.29-4.78,12.38l.14.06,8.66-17.46a.63.63,0,0,0-.44.09L21.13,32.2a.67.67,0,0,0-.38.65q-.06,10.27-.11,20.54c0,.14,0,.27.06.55.86-1.22,1.63-2.31,2.38-3.41a1,1,0,0,0,.1-.54q.06-7.93.09-15.86a.83.83,0,0,1,.48-.84c2.81-1.58,5.61-3.19,8.41-4.78.11-.07.24-.12.47-.23m28.16,0,.54.3c2.77,1.58,5.54,3.17,8.32,4.72a.92.92,0,0,1,.53.93q0,7.77,0,15.55a2.32,2.32,0,0,0,.34,1.08c.57.88,1.19,1.72,1.8,2.57.1.15.22.28.33.42l.13,0v-.54c0-2.69-.07-5.38-.08-8.08q0-6,0-12.09a1,1,0,0,0-.57-1q-7.38-4.31-14.73-8.64l-.51-.28-.1.1,8.68,17.52.14-.06L60.79,28.25"/><path class="cls-1" d="M521.81,63c-.72,1-1.2,1.82-1.81,2.52a17.69,17.69,0,0,1-13.09,6.28c-7.86.33-14.16-2.63-18.63-9.1a24.09,24.09,0,0,1-4.16-12.18c-.39-5.54.33-10.85,3.13-15.7,3.05-5.3,7.4-8.93,13.54-10.17a17.71,17.71,0,0,1,18.66,7.8c.11.17.23.33.53.75V7a2.4,2.4,0,0,1,.52-.14c3.51,0,7,0,10.53,0,.64,0,.81.27.8.85,0,1.21,0,2.43,0,3.64q0,22.77,0,45.54a12.66,12.66,0,0,0,.12,2.22,2.31,2.31,0,0,0,1.86,2,1.06,1.06,0,0,1,.62.77q.06,4.2,0,8.4c0,.28-.28.75-.5.79a15.06,15.06,0,0,1-6.61.27c-3.4-.8-5.12-3-5.28-6.45,0-.56-.13-1.12-.23-1.94M520,48.64c0-1.38.1-2.77,0-4.14a10.78,10.78,0,0,0-.75-3.18c-1.26-2.93-3.81-4.56-6.48-6a10.59,10.59,0,0,0-12.45,2c-4.24,4.43-5.29,9.68-3.66,15.43,2.47,8.7,12.88,12.83,20.48,5.75,1.84-1.72,3.21-3.7,2.91-6.45a32.86,32.86,0,0,1,0-3.44"/><path class="cls-1" d="M358.85,63.19l-.65,1A16.69,16.69,0,0,1,345,71.73c-12,1-19.31-8.14-21.19-16.87A27.78,27.78,0,0,1,324.57,39c2.9-7.73,8.18-13.08,16.59-14.48,7.65-1.26,13.94,1.24,18.54,7.62.19.26.39.51.78,1v-8c.42,0,.74-.06,1.07-.07,2.66,0,5.33,0,8,0,.9,0,1.15.26,1.14,1.15,0,7.42,0,14.84,0,22.26V74.68c0,.5,0,1,0,1.51.06,1.84.67,2.62,2.46,3.06.5.12.78.25.77.83,0,2.8,0,5.6,0,8.4,0,.26-.36.75-.57.75a52.52,52.52,0,0,1-7.93,0,7.87,7.87,0,0,1-6.33-8c.19-5.66,0-11.34,0-17v-1l-.24-.05m.24-14.3c0-1.18-.08-2.37,0-3.54a7.4,7.4,0,0,0-1.61-5.17c-.18-.24-.32-.51-.49-.76a11.87,11.87,0,0,0-11.84-5.08c-4.16.77-6.75,3.44-8.63,6.95a15.69,15.69,0,0,0-1.22,10.54c1.26,6.81,8.18,12.23,15.89,9.66,3-1,5.07-3.34,7-5.78a3.89,3.89,0,0,0,.92-2.78c-.08-1.34,0-2.69,0-4"/><path class="cls-1" d="M226.34,25.07v7.59l.21.1c.22-.26.45-.51.66-.78a18.32,18.32,0,0,1,12.06-7.48A20.53,20.53,0,0,1,260.54,35,25.22,25.22,0,0,1,264,48.81c-.26,6-1.87,11.66-5.83,16.35a17.94,17.94,0,0,1-13.86,6.62,17.52,17.52,0,0,1-14.67-6.54c-.28-.33-.5-.71-.75-1.07a2.81,2.81,0,0,0-.88-.92V64.4c0,8.06,0,16.12,0,24.18,0,1-.3,1.25-1.26,1.23-3.1,0-6.2,0-9.3,0-.79,0-1.05-.24-1.05-1q0-31.38,0-62.74c0-.48-.07-1,.68-1h9.27M228,47.43a23.86,23.86,0,0,1,0,2.93c-.36,2.76.88,4.9,2.58,6.85a18.81,18.81,0,0,0,2.42,2.3c6.13,4.88,13.3,2.43,16.73-3.08a15.17,15.17,0,0,0,.92-15,12.16,12.16,0,0,0-19.5-4c-2,1.89-3.57,4-3.15,7.06a22,22,0,0,1,0,2.93"/><path class="cls-1" d="M170.45,25.07v7.58l.22.11c.22-.25.44-.5.65-.77a18.63,18.63,0,0,1,12-7.49A20.57,20.57,0,0,1,204,33.85a25.12,25.12,0,0,1,4.13,14.75c-.23,6.16-1.88,11.94-6,16.71a17.88,17.88,0,0,1-13.53,6.47,17.54,17.54,0,0,1-14.86-6.54,16,16,0,0,0-1.63-2v1.15c0,8,0,16,0,24.08,0,1-.2,1.35-1.27,1.33-3.1-.07-6.2,0-9.3,0-.78,0-1-.22-1-1q0-31.38,0-62.74c0-.48-.09-1,.67-1h9.27m1.64,22.37a32.88,32.88,0,0,1,0,3.44,7.14,7.14,0,0,0,1.59,5.06c.24.33.47.67.73,1,2.33,2.76,5.11,4.86,8.83,5.15,4.27.34,7.59-1.6,10.1-4.89a15.1,15.1,0,0,0,2.82-10.3c-.31-6-4.7-12.29-11.69-12.66-5.19-.29-9,2-11.68,6.3a5.72,5.72,0,0,0-.65,2.57c-.11,1.44,0,2.9,0,4.35"/><path class="cls-1" d="M315.3,15.15c-1.75,3.17-3.49,6.32-5.26,9.55-.66-.45-1.26-.87-1.87-1.26a26.13,26.13,0,0,0-14.6-4.65,19.85,19.85,0,0,0-6.14.95c-3.92,1.37-4.58,4.37-4.1,7.49a5.19,5.19,0,0,0,3.19,3.84,67.68,67.68,0,0,0,7.62,2.86c3.78,1.2,7.64,2.15,11.41,3.38A20.43,20.43,0,0,1,313,41.75a14.31,14.31,0,0,1,4.57,10,17.86,17.86,0,0,1-4.41,13.55,16.92,16.92,0,0,1-9.34,5.11,43.55,43.55,0,0,1-34.4-6.2c-.68-.44-.89-.79-.46-1.6,1.45-2.7,2.81-5.45,4.2-8.19.15-.29.33-.56.43-.74,2.29,1.3,4.47,2.64,6.73,3.8a36.7,36.7,0,0,0,11.36,3.38,19.33,19.33,0,0,0,8.22-.41c2.21-.61,4.05-1.74,4.75-4.1.91-3.08-.38-6-3.6-7.48A67.14,67.14,0,0,0,293.6,46c-3.7-1.23-7.52-2.15-11.16-3.53A28.33,28.33,0,0,1,275.91,39a12.46,12.46,0,0,1-5-9.56c-.44-5.6,1-10.55,5-14.63a20.59,20.59,0,0,1,11.19-5.87c10.15-2,19.35.56,27.91,6a2.42,2.42,0,0,1,.28.25"/><path class="cls-1" d="M154.41,71h-6.23c-1.68,0-3.37,0-5.06,0a1.16,1.16,0,0,1-1.31-.92c-1.67-4.51-3.4-9-5.06-13.52a1.51,1.51,0,0,0-1.67-1.19c-6.54,0-13.09,0-19.63,0a1.43,1.43,0,0,0-1.59,1.14c-1.59,4.47-3.25,8.92-4.83,13.39a1.34,1.34,0,0,1-1.49,1.1c-3.38-.06-6.75,0-10.13,0-.29,0-.59,0-1,0,.11-.39.18-.7.3-1q11.49-30.09,23-60.18a1.35,1.35,0,0,1,1.51-1.07c2.74.06,5.47.07,8.2,0a1.54,1.54,0,0,1,1.75,1.18q9.21,24.26,18.49,48.49c1.46,3.84,2.94,7.67,4.4,11.51.12.31.21.63.37,1.14M125.65,22.43l-.32,0c-3,8.17-6,16.34-9.08,24.63h17.88c-2.86-8.3-5.67-16.48-8.48-24.65"/><path class="cls-1" d="M381.21,25.07H391.5c1.44,0,1.44,0,1.44,1.4,0,8.77,0,17.54.06,26.31a15.32,15.32,0,0,0,.8,4.54,6.77,6.77,0,0,0,8,4.74A13.18,13.18,0,0,0,412,54.65a4.82,4.82,0,0,0,.51-2.11c0-8.7,0-17.4,0-26.1v-1.3c.4,0,.73-.07,1-.07,3.2,0,6.41,0,9.61,0,.89,0,1.14.24,1.14,1.14q0,15.37,0,30.76a13.83,13.83,0,0,0,.05,1.82,2.49,2.49,0,0,0,1.92,2.32,1.07,1.07,0,0,1,.63.77q.06,4.2,0,8.4c0,.28-.27.78-.48.81-2.29.36-4.62.86-6.91.2-2.44-.71-4.44-2-4.92-4.79-.19-1.12-.16-2.28-.24-3.42a6,6,0,0,0-.13-.66c-.29.37-.5.61-.68.87-3.41,4.95-8.24,7.49-14.11,8.25a20.94,20.94,0,0,1-8.42-.28c-5.09-1.39-7.81-5.07-9-10a29,29,0,0,1-.83-6.49c-.09-9.58,0-19.16,0-28.74,0-.26,0-.53,0-1"/><path class="cls-1" d="M463.93,44.52c.07-2.52.24-5-.93-7.4-1.57-3.17-4.35-4.36-7.63-4.68a21.81,21.81,0,0,0-13.86,3.41l-2.43,1.45c-.17-.3-.33-.54-.45-.79-.9-1.85-1.76-3.72-2.71-5.54-.41-.76-.2-1.08.47-1.48a34.87,34.87,0,0,1,20-5.2,25.46,25.46,0,0,1,9.22,2,15.53,15.53,0,0,1,9.51,12.64,40.7,40.7,0,0,1,.39,5.74c.06,4.31,0,8.63,0,13,0,2.48.42,3,2.84,3.65v3c0,1.89,0,3.78,0,5.67,0,.81-.14,1.26-1,1.3-2,.07-4,.37-6,.26A5.86,5.86,0,0,1,466,66c-.09-.75-.24-1.5-.4-2.5-.34.38-.54.57-.72.79a19.74,19.74,0,0,1-15,7.45,16.36,16.36,0,0,1-11.81-3.48,13.66,13.66,0,0,1-4.92-9c-1-6.91,3.08-11.78,7.89-14.11a24.9,24.9,0,0,1,10.41-2.5,29.38,29.38,0,0,1,12.08,1.85,1.63,1.63,0,0,0,.39,0m0,9.41c0-.78,0-1.56,0-2.33a1,1,0,0,0-.84-1.14c-1.6-.38-3.2-.8-4.81-1.12a15.38,15.38,0,0,0-10.88,1.31A6.14,6.14,0,0,0,444,55.9a6.89,6.89,0,0,0,6.05,7.39c5.1.81,9.4-.94,12.91-4.67a3.72,3.72,0,0,0,1-2.87c-.05-.61,0-1.21,0-1.82"/><path class="cls-1" d="M566.22,33.19c-.68,0-1.1-.08-1.52-.08H543c-1.34,0-1.34,0-1.34-1.31V25.13c.44,0,.8-.06,1.15-.06q17.22,0,34.42,0c1,0,1.31.3,1.22,1.26a11.17,11.17,0,0,0,0,2.52c.35,2.43-.59,4.22-2.16,6.06-7.61,8.94-15.08,18-22.6,27-.21.25-.39.52-.72,1,.58,0,1,.07,1.34.07,7.8,0,15.59,0,23.39,0,.87,0,1.18.22,1.15,1.13-.06,1.95,0,3.91,0,5.87,0,.75-.19,1.07-1,1.07q-18.21,0-36.44,0c-.76,0-1-.26-1-1,0-1.76,0-3.51,0-5.27a2.73,2.73,0,0,1,.57-1.52q12.1-14.46,24.27-28.9c.25-.3.48-.6.87-1.1"/></g></g></svg>